<svg id="Layer_1" data-name="Layer 1" xmlns="http://www.w3.org/2000/svg" viewBox="0 0 749.98 122.69"><defs><style>.cls-1{fill:#12100b;}</style></defs><path class="cls-1" d="M190.92,8.89a8.74,8.74,0,0,0-1.87,1.32c-.16.17-.4.43-.7.78a11.67,11.67,0,0,0-1,1.58c-.39.69-.84,1.56-1.37,2.62s-1.12,2.37-1.78,4q-1.66,4-3.65,8.91t-4.06,10.15q-2.07,5.24-4.11,10.49t-3.85,10L164.43,67h-1q-2.73-6.72-5.09-12.81t-4.6-11.73q-2.25-5.64-4.32-10.9T145.28,21c-.39-1-.75-2-1.08-2.74s-.65-1.49-.95-2.16-.61-1.29-.92-1.9l-.94-1.9c-.17-.33-.43-.75-.76-1.26a7.88,7.88,0,0,0-3.48-2.76A9,9,0,0,0,134,7.64V6.73h24.79v.82c-.27.07-.78.15-1.49.25a10,10,0,0,0-2.2.63,6.34,6.34,0,0,0-2,1.28,2.74,2.74,0,0,0-.87,2.08,15.58,15.58,0,0,0,.92,3.52q.9,2.78,2.36,6.72c1,2.62,2.06,5.49,3.27,8.61s2.41,6.19,3.61,9.2,2.31,5.82,3.35,8.42,1.88,4.73,2.49,6.39c.28-.61.79-1.89,1.54-3.81s1.68-4.34,2.81-7.21,2.39-6.15,3.77-9.79,2.82-7.46,4.32-11.44a56.89,56.89,0,0,0,2.15-6.92,19.36,19.36,0,0,0,.5-3.28,2.81,2.81,0,0,0-.83-2.07,6.56,6.56,0,0,0-2.07-1.37,13.34,13.34,0,0,0-2.62-.83,22.31,22.31,0,0,0-2.44-.38V6.73h19.32v.91a9,9,0,0,0-3.77,1.25"/><path class="cls-1" d="M221.91,66.61H186.56v-.55a14.26,14.26,0,0,0,2.73-.71A5,5,0,0,0,191.4,64a2.68,2.68,0,0,0,.48-1,9.83,9.83,0,0,0,.3-1.46c.07-.56.14-1.13.19-1.74s.08-1.2.08-1.78,0-1.22,0-2.1,0-1.84,0-2.89,0-2.12,0-3.22V34c0-.65,0-1.27-.08-1.84a13.26,13.26,0,0,0-.26-1.52,2.4,2.4,0,0,0-.49-1,4.87,4.87,0,0,0-2.07-1.43,11.12,11.12,0,0,0-2.73-.66V27h17.57v.56c-.47.07-1,.18-1.7.33a6.57,6.57,0,0,0-1.88.71,4.66,4.66,0,0,0-1.51,1.4,4.48,4.48,0,0,0-.69,2.4c0,1.29-.06,2.46-.08,3.53s0,2.11-.06,3.14,0,2.09,0,3.19v10c0,1,0,1.94,0,2.95s0,2.14,0,3.39.08,2.29.14,3.35a5,5,0,0,0,.58,2.38,2.22,2.22,0,0,0,.88.54,9.23,9.23,0,0,0,1.59.47c.63.13,1.3.24,2,.33a18.18,18.18,0,0,0,2.2.14l1.41,0c.64,0,1.35-.05,2.12-.11s1.56-.13,2.36-.25A14.15,14.15,0,0,0,214.1,65a12.53,12.53,0,0,0,3.66-1.59,11.94,11.94,0,0,0,2.5-2.29A14.1,14.1,0,0,0,222,58.27c.48-1,.94-2.06,1.38-3.16l.55.16Z"/><path class="cls-1" d="M244,33.24c-.22.49-.54,1.23-1,2.26s-1,2.28-1.57,3.75-1.31,3.13-2.07,5-1.56,3.87-2.44,6h13.7c-.61-1.64-1.25-3.29-1.9-5s-1.26-3.24-1.87-4.77-1.15-2.91-1.65-4.17-.9-2.31-1.24-3.12m7.22,33.37v-.55A5.3,5.3,0,0,0,252,66a5.79,5.79,0,0,0,1.32-.39,3.67,3.67,0,0,0,1.22-.77,1.63,1.63,0,0,0,.52-1.25,7.2,7.2,0,0,0-.3-1.63c-.2-.76-.49-1.68-.86-2.75s-.78-2.29-1.26-3.61-1-2.71-1.54-4.13H236.44c-.55,1.39-1.08,2.72-1.6,4s-1,2.54-1.54,3.83a13.93,13.93,0,0,0-1.16,4.18,1.64,1.64,0,0,0,.44,1.18,3.58,3.58,0,0,0,1.13.77,7,7,0,0,0,1.49.45l1.51.24v.55H225V66a6.15,6.15,0,0,0,2.44-.77,5.33,5.33,0,0,0,1.19-.83,12.1,12.1,0,0,0,1.27-1.81A43.59,43.59,0,0,0,232,58.35q1.16-2.58,2.58-5.89c.95-2.21,1.93-4.47,2.95-6.8s2-4.68,3-7S242.5,34,243.38,32l-.56-1.21a9,9,0,0,0,1.8-1.05,10.88,10.88,0,0,0,1.4-1.27,9.6,9.6,0,0,0,1-1.26c.29-.41.49-.74.65-1h.44c1.14,3,2.22,5.94,3.25,8.67l2.94,7.9c.94,2.53,1.84,5,2.73,7.35s1.76,4.71,2.63,7c.41,1.14.78,2.09,1.13,2.83s.75,1.62,1.19,2.57a7.69,7.69,0,0,0,1.51,1.89,6.26,6.26,0,0,0,1.58,1,5.61,5.61,0,0,0,2.2.49v.66Z"/><path class="cls-1" d="M303,40.13a19.71,19.71,0,0,0-2.75-5.48,17.75,17.75,0,0,0-4.18-4.16,13,13,0,0,0-5.29-2.21c-.74-.14-1.54-.26-2.42-.35s-2-.13-3.25-.13c-.44,0-.92,0-1.43,0s-1,.06-1.52.11l-1.37.14a4.57,4.57,0,0,0-1,.17q-.28,2.69-.33,7.43T279.39,47V53.4q0,2.87.06,4.68c0,.51,0,1.07.08,1.67s.12,1.2.19,1.77a8.1,8.1,0,0,0,.36,1.54,3,3,0,0,0,.57,1,5.23,5.23,0,0,0,2.79,1.4,18,18,0,0,0,3.16.3c.92,0,1.86-.05,2.84-.14a14.36,14.36,0,0,0,2.73-.52,14.6,14.6,0,0,0,8.89-6.64A23.3,23.3,0,0,0,304,46.35a19.61,19.61,0,0,0-1-6.22m6.78,13.38a17.8,17.8,0,0,1-2.7,5.39,16,16,0,0,1-4,3.75A22,22,0,0,1,298.34,65a26.55,26.55,0,0,1-5.23,1.24,41.53,41.53,0,0,1-5.24.35h-20.1v-.54a10,10,0,0,0,2.67-.73,5.1,5.1,0,0,0,2-1.32,1.75,1.75,0,0,0,.41-.93c.1-.44.18-.94.25-1.48s.13-1.14.17-1.77,0-1.23,0-1.82,0-1.21,0-2.09,0-1.85.05-2.89,0-2.12,0-3.22V33.91c0-.67,0-1.28-.08-1.85a12.57,12.57,0,0,0-.25-1.55,2.54,2.54,0,0,0-.5-1.07,4.29,4.29,0,0,0-2-1.37,12.71,12.71,0,0,0-2.59-.55V27l6.66,0c2.91,0,6.41,0,10.53,0h3.52c1.21,0,2.42.05,3.64.16a33.26,33.26,0,0,1,3.63.56,18.4,18.4,0,0,1,3.58,1.15,20.69,20.69,0,0,1,4.35,2.54A16.63,16.63,0,0,1,307.45,35a17.85,17.85,0,0,1,2.42,4.91,20.59,20.59,0,0,1,.91,6.36,24.26,24.26,0,0,1-1,7.27"/><path class="cls-1" d="M315,66.61v-.55a11.05,11.05,0,0,0,2.57-.71,5.44,5.44,0,0,0,2-1.43A2.28,2.28,0,0,0,320,63a13.24,13.24,0,0,0,.22-1.43c.05-.56.08-1.13.11-1.74s0-1.2,0-1.78,0-1.22,0-2.1,0-1.84.06-2.89,0-2.12,0-3.22V33.91a17.77,17.77,0,0,0-.08-1.85,10.4,10.4,0,0,0-.24-1.54,2.71,2.71,0,0,0-.5-1.08,4.38,4.38,0,0,0-1.9-1.34,11.07,11.07,0,0,0-2.56-.58V27h16.46v.56a14.46,14.46,0,0,0-2.47.6,3.52,3.52,0,0,0-2,1.76,5.19,5.19,0,0,0-.52,2.37c0,1-.05,1.86-.08,2.7s0,1.83,0,2.72,0,1.81,0,2.74V58.85c0,1.07,0,2.09.07,3.08A3.88,3.88,0,0,0,327,64a4.14,4.14,0,0,0,2.09,1.44,11.07,11.07,0,0,0,2.59.6v.55Z"/><path class="cls-1" d="M405.48,66.42v-.91a13.67,13.67,0,0,0,6-1.5A7.26,7.26,0,0,0,414.67,61a10,10,0,0,0,.76-2.7c.16-1.07.27-2.17.33-3.27q.17-5.48.16-10.45V10.79c-1.82,4.09-3.5,7.85-5,11.28s-3,6.76-4.52,10-3,6.59-4.51,10-3.2,7.14-5,11.23c-.28.55-.66,1.42-1.16,2.61s-1,2.41-1.49,3.65-1,2.37-1.41,3.4-.72,1.7-.83,2h-.49q-2.67-6.14-5.27-12.18t-5.1-11.66q-2.49-5.6-4.64-10.48c-1.44-3.26-2.73-6.17-3.9-8.71s-2.11-4.67-2.85-6.38-1.27-2.87-1.53-3.48c0,3.65,0,6.86-.05,9.65s-.06,5.56-.08,8.3,0,5.62,0,8.67v10.6q0,3.9.25,6.76a12.84,12.84,0,0,0,1.24,4.81,7.18,7.18,0,0,0,3,3.06,16.49,16.49,0,0,0,5.6,1.62v.83H356.48v-.83a14.25,14.25,0,0,0,4.73-1.7,8,8,0,0,0,2.89-3.11,15.79,15.79,0,0,0,1.58-4.93,49.17,49.17,0,0,0,.59-7.17c.1-2.38.19-5.19.25-8.42s.08-6.7.08-10.4V19.41c0-1.1,0-2.46-.08-4.06a7.6,7.6,0,0,0-1-3.78,7.49,7.49,0,0,0-2.15-2.28,9.45,9.45,0,0,0-2.65-1.2c-.94-.25-1.74-.42-2.41-.54V6.73H376l19.81,45.09q3.66-7.86,7.13-15.66t6.27-14.09q2.77-6.3,4.56-10.5c1.19-2.78,1.86-4.4,2-4.84h17.66v.82A9,9,0,0,0,428.24,9a6.71,6.71,0,0,0-2.45,3.15,17.5,17.5,0,0,0-.67,4.38c-.11,2-.19,4-.24,5.9q-.09,4-.09,7.71V46.6q0,4.4.09,9.29a26.53,26.53,0,0,0,.2,3.19,7.39,7.39,0,0,0,.71,2.53,6.77,6.77,0,0,0,.62.79,9,9,0,0,0,1.53,1.32A10.14,10.14,0,0,0,430.43,65a11.44,11.44,0,0,0,3.48.62v.83Z"/><path class="cls-1" d="M438.21,66.61v-.55a10.62,10.62,0,0,0,2.55-.71,5.59,5.59,0,0,0,2-1.43,2.28,2.28,0,0,0,.41-.94,13.24,13.24,0,0,0,.22-1.43c.06-.56.09-1.13.11-1.74s0-1.2,0-1.78,0-1.22,0-2.1,0-1.84.06-2.89,0-2.12,0-3.22V33.91a17.64,17.64,0,0,0-.09-1.85,11.91,11.91,0,0,0-.24-1.54,2.58,2.58,0,0,0-.5-1.08,4.33,4.33,0,0,0-1.9-1.34,10.84,10.84,0,0,0-2.56-.58V27h16.47v.56a14.56,14.56,0,0,0-2.48.6,3.58,3.58,0,0,0-2,1.76,5.32,5.32,0,0,0-.52,2.37c0,1-.05,1.86-.09,2.7s0,1.83,0,2.72,0,1.81,0,2.74V58.85c0,1.07,0,2.09,0,3.08a3.87,3.87,0,0,0,.5,2.09,4.14,4.14,0,0,0,2.09,1.44,11.18,11.18,0,0,0,2.59.6v.55Z"/><path class="cls-1" d="M497,39.74a18.67,18.67,0,0,0-2.15-5,17.64,17.64,0,0,0-3.39-4,15.64,15.64,0,0,0-4.4-2.71,13.94,13.94,0,0,0-5.2-1,13.37,13.37,0,0,0-6.78,1.71,15.57,15.57,0,0,0-5,4.51A21.61,21.61,0,0,0,467,39.66,25.29,25.29,0,0,0,466,47a23.65,23.65,0,0,0,1.13,7.43,18.53,18.53,0,0,0,3.22,6,15.41,15.41,0,0,0,5.07,4A14.58,14.58,0,0,0,482,66a13.71,13.71,0,0,0,5.37-1,16.22,16.22,0,0,0,4.46-2.76,16.66,16.66,0,0,0,3.31-3.93,14.64,14.64,0,0,0,1.84-4.6h.66l-.16,12.11h-.66a18.84,18.84,0,0,0-1.38-1.7c-.48-.52-.81-.77-1-.77a5.15,5.15,0,0,0-1,.57,15.83,15.83,0,0,1-2.53,1.27,24.61,24.61,0,0,1-4,1.21,25.4,25.4,0,0,1-5.45.52,27.72,27.72,0,0,1-9.26-1.46,20.18,20.18,0,0,1-7-4.12,17.88,17.88,0,0,1-4.43-6.39,21.13,21.13,0,0,1-1.54-8.18,21.56,21.56,0,0,1,.13-2.26,19.32,19.32,0,0,1,.5-2.69,22.54,22.54,0,0,1,1-3A20.07,20.07,0,0,1,465.3,32a18.17,18.17,0,0,1,4-3,22.38,22.38,0,0,1,5.23-2.07,25.9,25.9,0,0,1,6.56-.77,24.29,24.29,0,0,1,5.78.61A27.05,27.05,0,0,1,491,28.06a17,17,0,0,1,2.53,1.33,4.58,4.58,0,0,0,1,.61.91.91,0,0,0,.41-.25c.21-.17.42-.37.66-.6a9.2,9.2,0,0,0,.74-.84,8.29,8.29,0,0,0,.72-1h.61V39.69Z"/><path class="cls-1" d="M530.27,66.61v-.55a11.13,11.13,0,0,0,3.42-.74,3.83,3.83,0,0,0,1.82-1.3,2,2,0,0,0,.19-.65c0-.33.1-.72.13-1.16s.07-.9.09-1.38,0-.94,0-1.38c0-1.21.06-2.45.06-3.73V47H514.25V58.85c0,1.07,0,2.09.06,3.08A4,4,0,0,0,514.8,64a4.21,4.21,0,0,0,1.87,1.44,8.34,8.34,0,0,0,2.37.6v.55H502.8v-.55a11.51,11.51,0,0,0,2.64-.74,4.92,4.92,0,0,0,1.93-1.3,2.29,2.29,0,0,0,.35-.9,12.48,12.48,0,0,0,.23-1.46c.05-.55.1-1.15.13-1.8s.06-1.25.06-1.83,0-1.22,0-2.1,0-1.84.05-2.89,0-2.12,0-3.22V33.91c0-.67,0-1.28-.08-1.85a10.26,10.26,0,0,0-.26-1.54,2.46,2.46,0,0,0-.49-1.08,4.27,4.27,0,0,0-1.9-1.34,11,11,0,0,0-2.55-.58V27h16.4v.56a15,15,0,0,0-1.65.33,5,5,0,0,0-1.6.69,3.77,3.77,0,0,0-1.21,1.29,4.33,4.33,0,0,0-.55,2.09c0,1.28-.06,2.67-.08,4.16s0,2.91,0,4.26v5.57H536V37.05c0-1,0-2-.06-3.25,0-.7-.08-1.43-.13-2.18a4.08,4.08,0,0,0-.53-1.85A4.17,4.17,0,0,0,533,27.93a11.22,11.22,0,0,0-2.53-.41V27h16.57v.56a8.77,8.77,0,0,0-2.59.74,3.9,3.9,0,0,0-1.87,1.68,3.15,3.15,0,0,0-.33,1.07c-.07.46-.13,1-.17,1.54s-.05,1.15-.05,1.74v18c0,1,0,2.09,0,3.19s0,2.31,0,3.63c0,1.07,0,2.05.09,3a4.06,4.06,0,0,0,.41,1.85,3.85,3.85,0,0,0,1.93,1.54,11.61,11.61,0,0,0,2.64.6v.55Z"/><path class="cls-1" d="M567.16,33.24c-.21.49-.53,1.23-1,2.26s-.94,2.28-1.56,3.75-1.32,3.13-2.07,5-1.56,3.87-2.45,6h13.71c-.62-1.64-1.26-3.29-1.9-5s-1.27-3.24-1.87-4.77-1.16-2.91-1.65-4.17-.91-2.31-1.25-3.12m7.22,33.37v-.55a5.37,5.37,0,0,0,.8-.11,6.1,6.1,0,0,0,1.32-.39,3.63,3.63,0,0,0,1.21-.77,1.64,1.64,0,0,0,.53-1.25,6.82,6.82,0,0,0-.31-1.63c-.2-.76-.48-1.68-.85-2.75s-.79-2.29-1.27-3.61-1-2.71-1.54-4.13H559.63c-.56,1.39-1.09,2.72-1.61,4s-1,2.54-1.54,3.83a13.82,13.82,0,0,0-1.15,4.18,1.64,1.64,0,0,0,.44,1.18,3.47,3.47,0,0,0,1.13.77,6.89,6.89,0,0,0,1.48.45l1.52.24v.55H548.17V66a6.15,6.15,0,0,0,2.45-.77,5.93,5.93,0,0,0,1.19-.83,13.16,13.16,0,0,0,1.26-1.81,41.43,41.43,0,0,0,2.15-4.25q1.15-2.58,2.59-5.89c1-2.21,1.93-4.47,3-6.8s2-4.68,3-7,1.92-4.58,2.8-6.63L566,30.77a8.69,8.69,0,0,0,1.79-1.05,11,11,0,0,0,1.41-1.27,10.51,10.51,0,0,0,1-1.26q.42-.61.63-1h.45c1.13,3,2.22,5.94,3.25,8.67s2,5.37,2.94,7.9l2.73,7.35c.88,2.37,1.77,4.71,2.64,7A30.12,30.12,0,0,0,584,60l1.19,2.57a7.79,7.79,0,0,0,.49.77,7.18,7.18,0,0,0,1,1.12,6.44,6.44,0,0,0,1.58,1,5.61,5.61,0,0,0,2.2.49v.66Z"/><path class="cls-1" d="M624.66,66.61H591v-.55a11,11,0,0,0,2.56-.71,5.23,5.23,0,0,0,2-1.38,2.39,2.39,0,0,0,.44-1c.11-.42.21-.91.3-1.46a13.62,13.62,0,0,0,.19-1.74c0-.61.07-1.2.07-1.78s0-1.22,0-2.1,0-1.84.06-2.89,0-2.12,0-3.22V35.89c0-.66,0-1.35,0-2s-.06-1.36-.11-2a11,11,0,0,0-.28-1.67,2.32,2.32,0,0,0-.53-1.08A3.79,3.79,0,0,0,593.88,28a22.79,22.79,0,0,0-2.43-.46V27h30.4l3.75,9.09-.56.27c-3-3.7-5.76-6.2-8.37-7.48a13.33,13.33,0,0,0-3.46-.78,51,51,0,0,0-6.17-.33c-.77,0-1.57,0-2.4.09a12.91,12.91,0,0,0-1.79.2c-.07.58-.13,1.79-.19,3.63s-.08,4-.08,6.38v3.53c0,1,0,1.73,0,2.34s0,1.08,0,1.4v.61h1.09c.56,0,1.19,0,1.9-.06s1.43-.08,2.15-.13a13.06,13.06,0,0,0,1.79-.25,9.34,9.34,0,0,0,2.75-1,6,6,0,0,0,1.79-1.6,7.92,7.92,0,0,0,1.11-2.17c.27-.82.51-1.75.74-2.79h.66V55.21H616a18.41,18.41,0,0,0-1.35-3.63,9.83,9.83,0,0,0-1.9-2.81,7.52,7.52,0,0,0-2.13-1.27,9.35,9.35,0,0,0-2.88-.6l-1.38-.09-1.1,0h-2.54a18.27,18.27,0,0,0-.1,2.26v6.6c0,.6,0,1.16,0,1.69s0,1,0,1.34c0,1.18.09,2.29.19,3.34a5.23,5.23,0,0,0,.62,2.33,3.5,3.5,0,0,0,2.38,1.11,23.38,23.38,0,0,0,4.07.33c.63,0,1.42,0,2.39-.06s2-.13,3.06-.27a11.85,11.85,0,0,0,3.25-.86,11.47,11.47,0,0,0,2.87-1.79A18.38,18.38,0,0,0,624.14,60a40.48,40.48,0,0,0,2.67-4l.6.17Z"/><path class="cls-1" d="M665.08,66.61H629.73v-.55a14.17,14.17,0,0,0,2.72-.71A5,5,0,0,0,634.57,64a2.68,2.68,0,0,0,.47-1,9.83,9.83,0,0,0,.3-1.46c.07-.56.14-1.13.19-1.74s.09-1.2.09-1.78,0-1.22,0-2.1,0-1.84.05-2.89,0-2.12,0-3.22V34c0-.65,0-1.27-.08-1.84a11.47,11.47,0,0,0-.25-1.52,2.66,2.66,0,0,0-.5-1,4.78,4.78,0,0,0-2.06-1.43,11.23,11.23,0,0,0-2.73-.66V27h17.56v.56c-.48.07-1,.18-1.7.33a6.51,6.51,0,0,0-1.87.71,4.59,4.59,0,0,0-1.52,1.4,4.48,4.48,0,0,0-.69,2.4c0,1.29-.06,2.46-.08,3.53s0,2.11,0,3.14,0,2.09,0,3.19v10c0,1,0,1.94,0,2.95s0,2.14,0,3.39.09,2.29.14,3.35a5,5,0,0,0,.58,2.38,2.3,2.3,0,0,0,.88.54,9.36,9.36,0,0,0,1.6.47c.63.13,1.3.24,2,.33a17.89,17.89,0,0,0,2.19.14l1.41,0c.64,0,1.35-.05,2.12-.11s1.56-.13,2.37-.25a14,14,0,0,0,2.15-.44,12.41,12.41,0,0,0,3.66-1.59,12,12,0,0,0,2.51-2.29,14.06,14.06,0,0,0,1.75-2.81c.48-1,.94-2.06,1.38-3.16l.55.16Z"/><path class="cls-1" d="M702.05,39.79a21.33,21.33,0,0,0-2.59-6.19,14.68,14.68,0,0,0-4.32-4.51A10.67,10.67,0,0,0,689,27.35a10.89,10.89,0,0,0-6.19,1.74,14.06,14.06,0,0,0-4.3,4.48,20.85,20.85,0,0,0-2.48,6.26,31.09,31.09,0,0,0-.79,7.07,29.06,29.06,0,0,0,.88,7.21,19.55,19.55,0,0,0,2.61,6.11,13.67,13.67,0,0,0,4.35,4.25,11.48,11.48,0,0,0,6.09,1.6,10.37,10.37,0,0,0,6-1.77,14.63,14.63,0,0,0,4.27-4.54,21.9,21.9,0,0,0,2.56-6.25,28.92,28.92,0,0,0,.86-6.94,27.88,27.88,0,0,0-.86-6.78m6,14.87a20.06,20.06,0,0,1-4.49,6.5A19.67,19.67,0,0,1,697,65.4a21.43,21.43,0,0,1-8,1.49A21.72,21.72,0,0,1,681,65.43a20,20,0,0,1-6.55-4.13,19.42,19.42,0,0,1-4.43-6.39,20.24,20.24,0,0,1-1.63-8.17,20.45,20.45,0,0,1,1.71-8.52,19.2,19.2,0,0,1,4.6-6.38,20.25,20.25,0,0,1,6.77-4,23.8,23.8,0,0,1,8.18-1.4,20.27,20.27,0,0,1,8.39,1.65,19.15,19.15,0,0,1,6.31,4.43,19.45,19.45,0,0,1,4,6.41,21.29,21.29,0,0,1,1.38,7.61,20,20,0,0,1-1.66,8.14"/><path class="cls-1" d="M747.48,28.4a6.73,6.73,0,0,0-1.24.88c-.11.11-.27.28-.47.52a6.63,6.63,0,0,0-.68,1.05c-.27.46-.56,1-.92,1.74s-.74,1.58-1.17,2.64q-1.11,2.64-2.43,5.92c-.89,2.18-1.78,4.43-2.7,6.74s-1.83,4.63-2.73,7-1.75,4.54-2.55,6.64L729.88,67h-.65c-1.22-3-2.35-5.81-3.39-8.51s-2.07-5.29-3.05-7.79-1.95-4.91-2.87-7.24-1.84-4.68-2.76-7c-.25-.69-.49-1.29-.71-1.81s-.43-1-.63-1.43-.41-.86-.61-1.27-.41-.83-.64-1.26a7.88,7.88,0,0,0-.49-.83,5,5,0,0,0-.9-1,5.14,5.14,0,0,0-1.41-.85,6,6,0,0,0-2.1-.42V27h16.47v.56l-1,.17a6.24,6.24,0,0,0-1.46.4,4,4,0,0,0-1.32.86,1.81,1.81,0,0,0-.58,1.37,10.37,10.37,0,0,0,.61,2.35q.6,1.84,1.56,4.45t2.18,5.73c.81,2.08,1.61,4.11,2.4,6.11s1.53,3.87,2.23,5.6,1.25,3.14,1.65,4.23c.18-.4.52-1.25,1-2.53s1.11-2.88,1.86-4.79,1.6-4.07,2.51-6.49l2.87-7.61a38.33,38.33,0,0,0,1.43-4.59,12.65,12.65,0,0,0,.33-2.18,1.87,1.87,0,0,0-.55-1.38,4.88,4.88,0,0,0-1.37-.91,9.25,9.25,0,0,0-1.74-.54,13.2,13.2,0,0,0-1.62-.25V27H750v.61a6.16,6.16,0,0,0-2.5.83"/><polygon class="cls-1" points="175.99 112.03 175.99 101.49 161.21 101.49 161.21 112.03 159.43 112.03 159.43 88.84 161.21 88.84 161.21 99.87 175.99 99.87 175.99 88.84 177.77 88.84 177.77 112.03 175.99 112.03"/><path class="cls-1" d="M183.31,103.85a6.58,6.58,0,0,0,6.7,6.85c9.11,0,9.11-13.68,0-13.68a6.55,6.55,0,0,0-6.7,6.83m15-8.18V112H196.7v-3.48a7.65,7.65,0,0,1-6.69,3.74,8.41,8.41,0,0,1,0-16.82,7.42,7.42,0,0,1,6.69,3.77V95.67Z"/><path class="cls-1" d="M202.74,112h1.62V95.59h-1.62Zm2.15-21.7a1.31,1.31,0,0,1-2.62,0,1.31,1.31,0,0,1,2.62,0"/><path class="cls-1" d="M210.53,95.67l.06,2.91A5.77,5.77,0,0,1,216,95.5a6.38,6.38,0,0,1,3.51,1l-.73,1.32A5.27,5.27,0,0,0,216,97a5.45,5.45,0,0,0-5.41,5.47V112H209V95.67Z"/><path class="cls-1" d="M246.45,93.31c-1.69-2.72-4.41-3.11-7-3.14s-7,1-7,4.7c0,2.95,3.18,3.65,7.09,4.38,4.47.85,9.11,1.65,9.11,6.65,0,5.23-5.3,6.49-9.17,6.49-3.62,0-7.72-1.48-9.51-5l1.59-.8c1.42,2.82,5.06,4.21,7.92,4.21s7.39-.79,7.39-4.9c0-3.48-3.82-4.24-7.63-5-4.24-.83-8.58-1.69-8.58-6-.1-4.91,5-6.43,8.82-6.43,3.31,0,6.19.53,8.48,3.94Z"/><path class="cls-1" d="M256.19,90.73v4.94h5.57V97h-5.57v10c0,2.22.47,3.78,3,3.78a5.93,5.93,0,0,0,2.52-.67l.56,1.33a7.11,7.11,0,0,1-3.08.83c-3.48,0-4.6-2.05-4.6-5.27V97h-3.48V95.67h3.48V90.9Z"/><polygon class="cls-1" points="279.86 95.67 269.88 118.85 268.16 118.85 271.18 111.83 264.62 95.67 266.37 95.67 270.18 105.34 272.11 110.08 273.99 105.31 278.1 95.67 279.86 95.67"/><rect class="cls-1" x="283.01" y="88.84" width="1.62" height="23.19"/><path class="cls-1" d="M289.17,112h1.62V95.59h-1.62Zm2.16-21.7a1.32,1.32,0,0,1-2.63,0,1.32,1.32,0,0,1,2.63,0"/><path class="cls-1" d="M297,95.67v2.91a6.48,6.48,0,0,1,5.83-3.21c4.37,0,7.38,2.68,7.38,7.22V112h-1.62v-9.41c0-3.71-2.28-5.7-5.83-5.66a5.68,5.68,0,0,0-5.73,6V112h-1.62V95.67Z"/><path class="cls-1" d="M315.36,103.35a6,6,0,0,0,6.05,6.3,6.29,6.29,0,0,0,6.14-6.3c0-4.14-2.75-6.36-6.14-6.36s-6.05,2.09-6.05,6.36M327.65,95l1.05.93-1.58,1.86a7.64,7.64,0,0,1,2,5.56,7.72,7.72,0,0,1-4.41,7c2.88,1,4.47,3,4.47,5.87,0,4.41-3.45,6.52-7.79,6.52s-7.74-2.38-7.74-6.52h1.62c0,3.35,2.84,4.94,6.12,4.94s6.2-1.46,6.2-4.94-3.15-4.9-6.2-4.9c-4.73,0-7.68-3.55-7.68-7.92,0-5.1,3.45-8,7.68-8a8.38,8.38,0,0,1,4.65,1.49Z"/><path class="cls-1" d="M63.58,58.67l-.11-.06c-2.11-1.19-2.72-4.3-1.35-6.93s4.36-4,6.57-2.81l.11.06c2.11,1.19,2.72,4.3,1.35,6.93s-4.35,4-6.57,2.81m7.14-10.59L79,41.66l-1.42-3.13c-.76,1.13-1.62,2.37-2,2.79-1.32,1.54-5.07,4.23-7,5.56-3-.92-6.42.7-8.11,3.95-1.86,3.56-.94,7.68,2.07,9.38l.17.09c3.1,1.62,7.16,0,9-3.59,1.62-3.12,1.13-6.66-1-8.63"/><path class="cls-1" d="M83.44,64.52a3,3,0,0,1-.72-.21c-2.07-.84-3.22-3.38-2.73-6.05.56-3,3-5.06,5.46-4.61a4.27,4.27,0,0,1,.72.21c2.07.84,3.22,3.38,2.72,6-.55,3-3,5.06-5.45,4.61m-3-27A1.12,1.12,0,0,1,79.79,36a1.12,1.12,0,1,1,.62,1.45M90.69,60.24c.66-3.52-1-6.92-3.84-8.08l-.11,0A34.14,34.14,0,0,1,83.65,40.8c-.59-2,.35-36.7.35-36.7l-1.07.06L78.15,37s5.09,10.18,5.91,14.84a7.29,7.29,0,0,0-5.87,6.12c-.65,3.52,1,6.92,3.84,8.08a5.7,5.7,0,0,0,1.07.31c3.45.64,6.85-2.09,7.59-6.08"/><polygon class="cls-1" points="100.2 11.21 99.27 10.66 85.06 25.78 84.52 34.56 100.2 11.21"/><path class="cls-1" d="M62,45.6c-8.28-1.17-14.41-2.7-18.67-13.75C34,7.46,61.16,3.24,61.16,3.24s-26.07-5.72-32,22c-2.11,9.87,2.62,10.86-.24,14.88a9.68,9.68,0,0,1-5.57-1.27.13.13,0,0,0-.18.17,5.07,5.07,0,0,0,4.43,2.68c-4.14,4.53-10,9-9.56,11s3.14,4.15,6.43,5.58c.15,1.21-3.22,1.07-3.07,3.72s5.65,4,5.79,4.79-3.93-.5-3.65,2.65c.07,2.71,4.72,2.57,4.65,4.22S23,77.44,25.82,82.16s16.11-1.11,23.77,1.9,7.51,16.2,10.22,17,5.3-6.51,11.88-4.37c3.29,1.08,4.52,5.68,3.43,8.06s-6.48,1.58-7.13-1.37c-2.3,4.39,4.77,9.06,9.42,7.19,8.48-3.4,14.12-4.78,16.81-13.23,4.45-14-7.15-25-16.53-25.43-8.77-.45-14.15,7.79-13.53,12.77.53,4.35,6.54,8,10.82,2.9-3,1.72-6.06-.28-5.67-3.14.55-4.14,9.1-3.56,9,1.81s-3.79,7.58-10.08,6.58S56.59,81.09,62.6,75.43s9.3-8.44,11-12.23a12.77,12.77,0,0,0,.57-7.87s-1.14,8.73-9.44,8.16S53.74,49,62.22,45.62"/><path class="cls-1" d="M98.24,20.88a54.6,54.6,0,0,1,15,40.44c-1.32,26.67-25,50.49-51.72,51.88a54.73,54.73,0,1,1,17-105.61l.57-3.89A58.55,58.55,0,1,0,61.65,117C90.32,115.55,115.75,90,117,61.26a58.32,58.32,0,0,0-16-43"/></svg>