<svg id="Layer_2" data-name="Layer 2" xmlns="http://www.w3.org/2000/svg" viewBox="0 0 1678.6 266.05"><defs><style>.cls-1{fill:#fff;}</style></defs><path class="cls-1" d="M141.34,133.07c-12-6.08.13-28.91,11.84-22.11,11.5,6.21-.29,28.42-11.84,22.11m16.21-24,18.72-14.56L173,87.37c-4.85,8.44-12.44,13.36-20.27,18.93-15.95-5.56-29,22.22-13.71,30.26,14.81,8.85,31.3-16.82,18.5-27.53"/><path class="cls-1" d="M186.4,146.34C173.09,144,178,119.05,191,121.68c13.32,2.34,8.34,27.29-4.57,24.66M179.52,85c-3.06-1.18-1.13-6,1.89-4.69s1.13,6-1.89,4.69m23.35,51.67c1.48-8.07-2.26-15.93-9-18.43-11.93-14.38-6-94-6.21-109l-2.43.15L174.41,83.83s11.55,23.1,13.4,33.67c-33.05,9.16,2.31,56.78,15.06,19.13"/><path class="cls-1" d="M138.24,103.58c-18.8-2.65-32.72-6.13-42.38-31.21C74.54,17,136.26,7.45,136.26,7.45c-32.87-6.59-79.8,11-73.15,83.78-4.32,1-9.59-2-13.06-2.49,2.4,4.27,5.61,5.59,10.06,6.09-17.83,18.1-33.21,26.31-7.1,37.66-15.09,10.27-1.6,13.92,6.17,19.31.32,1.79-8.93-1.13-8.28,6,.15,6.17,10.71,5.85,10.55,9.58C35.07,203,86,184.3,110,190.85c17.37,6.83,17,36.78,23.21,38.56s12-14.77,26.95-9.91c18.32,7.19,3.39,34.16-8.39,15.19-1.83,34.09,57.33,8.59,59.51-13.7,10.1-31.75-16.21-56.62-37.51-57.72-36.69-3.87-40.73,58.91-6.14,35.56-6.71,3.9-13.75-.64-12.88-7.14,1.25-9.38,20.67-8.06,20.35,4.11-3.94,36.53-61.29,1.65-35.55-24.51,18-15.78,31.26-29.44,26.29-45.62-6.86,41.17-64.35,4-27.17-22"/><path class="cls-1" d="M220.42,47.47C293.78,117.77,238.13,253.58,137,257-63.18,257.46-13.32-45.88,175.6,17.32l1.29-8.82C-24.75-55.84-75.17,266.35,137.38,265.67c108.22-3.56,167.88-148.86,89.33-224.15"/><polygon class="cls-1" points="224.17 31.94 222.04 30.7 189.8 65.02 188.58 84.95 224.17 31.94"/><path class="cls-1" d="M411.7,21.39c-30,35.7-36.34,90.87-60,131.69h-2.26c-24.82-41.39-25.27-110.45-66.69-134.51V16.5h56.17v1.87c-37.64,5.52,19.24,82.38,21.43,106.72,2.49-25.38,60.6-101.48,16.15-106.72V16.5h43.77v2.07a20.69,20.69,0,0,0-8.54,2.82"/><path class="cls-1" d="M481.94,152.21H401.83V151c21.12-1.89,11.29-29.45,13.61-44.05-2.29-12.72,7.89-43-12.74-43.3V62.36h39.8v1.25C419.78,65.89,432.05,97.55,429,113c.65,10.7-1.42,23.72,1.75,33.95,19.41,8.67,49.1,2.5,54.54-20.85l1.23.37Z"/><path class="cls-1" d="M531.94,76.59c-5.17,12.1-10.66,25.45-16,38.55h31.06c-4.76-12.59-10.27-26.45-15.11-38.55m16.36,75.62V151c18-1.47,1.78-22.84-.24-33.19h-33.2c-2.86,11-19.76,32.76.62,33.19v1.25H488.91v-1.36C513.3,138.07,516.36,97,530.58,73.72L529.33,71c4.74-2,8.57-6.18,11-10.36h1c16,27.86,15.17,74.39,43.42,90.08v1.51Z"/><path class="cls-1" d="M665.72,92.19C659.38,68.9,635,60.43,613.07,65.24c-.7,23.14-2.61,54.66.67,78.91,30,24.2,65.54-20.33,52-52m15.36,30.32c-11.23,39.16-64.87,28.16-95.22,29.69V151c20.54-2.14,10.17-29.75,12.73-44-2.43-12.38,8-43.24-12.24-43.31V62.35c40.88-4.13,113.17-1.13,94.73,60.16"/><path class="cls-1" d="M692.79,152.21V151c20.29-2.45,9.72-29.79,12.37-44.05-2.45-12.29,8-43-12-43.3V62.36h37.31v1.25c-19.57,2-9.21,29.43-11.75,42.8,2.58,11.9-8.25,45,11.87,44.55v1.25Z"/><path class="cls-1" d="M897.91,151.77V149.7c42,2.52,17.47-96.09,23.67-124-18.25,41.92-37,80.44-54.29,122.85h-1.13c-16.92-39.66-35.7-81.49-52.77-119.85C820,60.54,793.47,145.17,835.92,149.9v1.87h-49V149.9c36.31-9.55,18.29-61.19,22.92-90.18.19-15.87,3.48-40.48-18.8-41.35V16.5h40l44.89,102.19C891,86,908.21,47.65,921.21,16.5h40v1.87c-31.52,2.1-15.66,47.27-19.56,68.21,3.16,20.54-11.47,62.27,20.69,63.32v1.87Z"/><path class="cls-1" d="M972.08,152.21V151c20.28-2.47,9.71-29.79,12.36-44.05-2.44-12.29,8-43-12-43.3V62.36h37.31v1.25c-19.57,2-9.2,29.43-11.74,42.8,2.59,11.91-8.26,45,11.87,44.55v1.25Z"/><path class="cls-1" d="M1105.36,91.31c-12.2-47.28-74.93-28.84-70.39,16.36-4.72,44.44,59.44,60.39,70.26,15.1h1.49l-.36,27.44h-1.49c-2.41-2.39-4-7.72-7.62-4.3-41.5,25.44-99.55-18.74-70.25-64.09,13.51-23,48.93-27.16,70.49-14,3.72,3.51,5.66-2.3,8-4.61h1.37V91.19Z"/><path class="cls-1" d="M1180.72,152.21V151c21.87-.3,10.15-29.09,13-43.18h-49.28c2.49,11.4-7.79,42.86,10.87,43.18v1.25h-36.82V151c20.25-2.35,9.69-29.8,12.36-44.05-2.45-12.29,8-43-12-43.3V62.36H1156v1.25c-19.3,1.84-9.15,28.58-11.59,41.68h49.28c-2.29-13,7.69-41.29-12.46-41.68V62.36h37.54v1.25c-18.56,1.13-9.19,28.67-11.34,40.55,3.2,14.18-9.12,44.73,11.6,46.8v1.25Z"/><path class="cls-1" d="M1264.32,76.59c-5.2,12.11-10.64,25.46-16,38.55h31.08c-4.77-12.59-10.26-26.45-15.1-38.55m16.35,75.62V151c18-1.48,1.79-22.84-.25-33.19h-33.19c-2.86,11-19.76,32.76.62,33.19v1.25h-26.57v-1.36c24.39-12.79,27.45-53.88,41.68-77.13L1261.7,71c4.73-2,8.59-6.16,11-10.36h1c16,27.85,15.17,74.4,43.41,90.08v1.51Z"/><path class="cls-1" d="M1394.6,152.21h-76.36V151c20.27-2.53,10.29-29.76,12.72-44.05-2.55-12,8-43.19-11.61-43.3V62.36h68.89L1396.73,83l-1.25.62c-13.71-19.33-29-21.22-50.29-18.83-.89,11.23-.63,28.42-.49,40.55,13.48,1,29.17-2,30.19-18.23h1.5v39.31h-1.5c-2.3-15.57-15.82-21-30.08-19.08-.49,7.07-.19,16.63-.18,23.89-4.63,33.63,47.68,20,54.84-3.18l1.37.39Z"/><path class="cls-1" d="M1486.2,152.21h-80.11V151c21.13-1.89,11.28-29.46,13.6-44.05-2.3-12.71,7.9-43-12.73-43.3V62.36h39.8v1.25c-22.72,2.27-10.44,33.94-13.47,49.42.65,10.7-1.43,23.73,1.75,33.95,19.4,8.67,49.12,2.5,54.52-20.85l1.26.37Z"/><path class="cls-1" d="M1570,91.44c-16.33-58.73-77-12-58.69,32.44,16.2,57,76.25,10.82,58.69-32.44m13.67,33.69c-23.51,55.35-111.66,18.36-86-37.26,24.26-53.59,111-18.09,86,37.26"/><path class="cls-1" d="M1672.93,65.61c-19.93,23.7-24.13,60.36-39.87,87.47h-1.49c-16.5-27.5-16.79-73.36-44.31-89.34V62.36h37.31v1.25c-24.86,5.73,12.72,53.5,14.23,70.88,1.77-18.14,40.13-65.22,10.74-70.88V62.36h29.06v1.38a13.63,13.63,0,0,0-5.67,1.87"/><path class="cls-1" d="M379.69,226.73c6.66,40.45,55.8-8.87,15.18-15.47-8.42,0-15.18,6.16-15.18,15.47m34-18.54v37.07H410v-7.87c-43.37,38.54-42.66-60,0-21.1v-8.1Z"/><path class="cls-1" d="M423.73,245.26h3.67V208h-3.67Zm4.87-49.16c0,3.91-6,3.91-6,0s6-3.9,6,0"/><path class="cls-1" d="M441.36,208.19l.15,6.6c3.81-7.61,13.64-8.75,20.28-4.8l-1.65,3c-21.08-9.72-19.13,20.1-18.56,32.27h-3.67V208.19Z"/><path class="cls-1" d="M522.76,202.85c-6.71-10.52-30-10.44-31.82,3.53,1.66,15.47,38.15,5.05,36.69,25-1.83,20.44-34.64,18.48-42.32,3.3l3.59-1.81c14.15,25.95,58.31-6.84,17.41-12.84-44.61-5.48.62-47.43,19.76-19.13Z"/><path class="cls-1" d="M544.85,197v11.2h12.61v3.07H544.85c1.41,8.66-6,39,12.54,29.64l1.27,3c-22.25,10.83-17-20.66-17.41-32.64h-7.88V208.2h7.88V197.38Z"/><polygon class="cls-1" points="364.8 245.89 364.8 222.01 331.32 222.01 331.32 245.89 327.27 245.89 327.27 193.33 331.32 193.33 331.32 218.34 364.8 218.34 364.8 193.33 368.85 193.33 368.85 245.89 364.8 245.89"/><path class="cls-1" d="M599.18,204.8l-22.61,52.54h-3.89l6.84-15.9L564.65,204.8h4c2.82,7.2,10.13,25.78,13,32.66,2.57-6.94,10.55-25.61,13.58-32.66Z"/><rect class="cls-1" x="606.34" y="189.34" width="3.67" height="52.54"/><path class="cls-1" d="M620,241.81h3.67V204.57H620Zm4.89-49.16c0,3.9-5.95,3.9-5.95,0s5.95-3.91,5.95,0"/><path class="cls-1" d="M637.84,204.73v6.6c23.11-23.48,34.29,10.28,29.95,30.48h-3.67c7.49-46.64-33.34-45.85-26.21,0h-3.67V204.73Z"/><path class="cls-1" d="M679.39,222.15c-.91,18.45,27.9,18.47,27.62,0,.56-19-28.24-19.47-27.62,0m27.84-18.92,2.4,2.11-3.6,4.19c7.49,7,5.54,24.09-5.42,28.37,33.75,17.23-22.34,45.85-25.06,13.31h3.67c-.44,14.91,28.38,15.11,27.94,0,0-8-7.15-11.13-14-11.13-31.27-1.25-14.72-50.51,10.52-32.65Z"/></svg>