<?xml version="1.0" encoding="utf-8"?>
<!-- Generator: Adobe Illustrator 25.3.1, SVG Export Plug-In . SVG Version: 6.00 Build 0)  -->
<svg version="1.1" id="Layer_1" xmlns="http://www.w3.org/2000/svg" xmlns:xlink="http://www.w3.org/1999/xlink" x="0px" y="0px"
	 viewBox="0 0 601.69 570.61" style="enable-background:new 0 0 601.69 570.61;" xml:space="preserve">
<style type="text/css">
	.st0{fill:#C69C6D;}
</style>
<path class="st0" d="M561.71,143.47c-23.64,14.19-45.96,17.55-87.37,23.37c-23.23,3.27-42.44,4.63-55.22,5.27
	c-16.73,0.62-45.56,3.32-77.93,16.02C200.12,243.5,161.6,422.35,155.68,452.61c-5.62,28.71-10.31,68.93-6,118c5,0,10,0,15,0
	c-0.49-17.71,0.36-43.26,7-73c19.59-87.66,73.69-140.67,88-154c51.82-48.25,107.67-65.5,135-72c-45.78,20.39-133.57,68.33-178,165
	c-6.88,14.98-12.09,29.74-16,44c40.92-1.77,139.12-11.7,233.29-81.48C574.68,294.86,597.82,137.43,601.69,107
	C587.35,126.02,572.41,137.04,561.71,143.47z"/>
<path class="st0" d="M194.52,310.37c9.87-17.61,39.15-63.95,91.27-100.14c-29.56-21.94-58.35-36.53-78.77-45.62
	c19.55,4.65,53.7,14.81,90.54,37.89c21.39-13.31,46.2-24.68,74.66-31.9c-27.07-37.02-63.36-70.49-111.7-89.46
	c-32.37-12.7-61.2-15.4-77.93-16.02c-12.78-0.64-31.99-2.01-55.22-5.27c-41.41-5.82-63.73-9.18-87.37-23.37
	C29.28,30.04,14.35,19.02,0,0c3.87,30.43,27.02,187.86,167.73,292.13C176.64,298.73,185.58,304.8,194.52,310.37z"/>
</svg>
