<?xml version="1.0" encoding="utf-8"?>
<svg version="1.1" xmlns:xlink="http://www.w3.org/1999/xlink" width="18px" height="27px" xmlns="http://www.w3.org/2000/svg">
  <g transform="matrix(1 0 0 1 -123 -1855 )">
    <path d="M 12.181640625 12.181640625  C 13.060546875 11.302734374999998  13.5 10.2421875  13.5 9.000000000000002  C 13.5 7.757812499999998  13.060546875 6.697265625  12.181640625 5.818359374999999  C 11.302734375 4.939453125000001  10.242187500000002 4.499999999999999  9 4.499999999999999  C 7.757812500000001 4.499999999999999  6.697265625 4.939453125000001  5.818359375 5.818359374999999  C 4.939453125 6.697265625  4.5 7.757812499999998  4.5 9.000000000000002  C 4.5 10.2421875  4.939453125 11.302734374999998  5.818359375 12.181640625  C 6.697265625 13.060546875000002  7.757812500000001 13.5  9 13.5  C 10.242187500000002 13.5  11.302734375 13.060546875000002  12.181640625 12.181640625  Z M 15.36328125 2.63671875  C 17.12109375 4.394531249999999  18 6.5156249999999964  18 9.000000000000002  C 18 10.277343749999998  17.806640625 11.326171875  17.419921875 12.146484374999998  L 11.021484375 25.751953125  C 10.833984375 26.138671875  10.5556640625 26.443359374999996  10.1865234375 26.666015625  C 9.8173828125 26.888671875  9.421875 27  9 27  C 8.578125 27  8.1826171875 26.888671875  7.8134765625 26.666015625  C 7.4443359375 26.443359374999996  7.171875 26.138671875  6.99609375 25.751953125  L 0.580078125 12.146484374999998  C 0.193359375 11.326171875  0 10.277343749999998  0 9.000000000000002  C 0 6.5156249999999964  0.87890625 4.394531249999999  2.63671875 2.63671875  C 4.394531250000001 0.878906250000001  6.515625 0  9 0  C 11.484375 0  13.60546875 0.878906250000001  15.36328125 2.63671875  Z " fill-rule="nonzero" fill="#c69c6d" stroke="none" transform="matrix(1 0 0 1 123 1855 )" />
  </g>
</svg>