<?xml version="1.0" encoding="utf-8"?>
<svg version="1.1" xmlns:xlink="http://www.w3.org/1999/xlink" width="27px" height="27px" xmlns="http://www.w3.org/2000/svg">
  <g transform="matrix(1 0 0 1 -307 -1854 )">
    <path d="M 22.11328125 20.49609375  C 22.37109375 19.874999999999996  22.5 19.283203124999996  22.5 18.720703125  C 22.5 18.591796875  22.488281250000004 18.498046874999996  22.46484375 18.439453124999996  C 22.441406250000004 18.380859375  22.335937500000004 18.284179687499996  22.1484375 18.149414062499996  C 21.960937500000004 18.0146484375  21.723632812500004 17.868164062500004  21.4365234375 17.709960937500004  C 21.149414062500004 17.551757812500004  20.871093750000004 17.396484374999996  20.6015625 17.244140625  C 20.332031250000004 17.091796875  20.0654296875 16.945312500000004  19.8017578125 16.804687499999996  C 19.5380859375 16.6640625  19.37109375 16.576171875000004  19.30078125 16.541015624999996  C 19.2421875 16.505859375  19.130859375000004 16.4296875  18.966796875 16.312500000000004  C 18.802734375000004 16.1953125  18.656250000000004 16.107421875  18.52734375 16.048828125000004  C 18.3984375 15.990234374999996  18.275390625000004 15.960937499999998  18.158203125 15.960937499999998  C 17.982421875 15.960937499999998  17.7685546875 16.0810546875  17.5166015625 16.3212890625  C 17.2646484375 16.5615234375  17.033203125000004 16.8251953125  16.822265625 17.1123046875  C 16.611328125000004 17.3994140625  16.3857421875 17.6630859375  16.1455078125 17.9033203125  C 15.905273437500002 18.1435546875  15.708984375000002 18.263671875000004  15.556640625 18.263671875000004  C 15.474609375 18.263671875000004  15.377929687500002 18.2431640625  15.2666015625 18.202148437499996  C 15.155273437500002 18.161132812499996  15.064453125000002 18.123046874999996  14.994140624999998 18.087890625  C 14.923828125 18.052734375000004  14.824218750000002 17.997070312499996  14.695312500000002 17.920898437500004  C 14.56640625 17.844726562499996  14.484375000000002 17.794921875  14.44921875 17.771484375  C 13.2890625 17.126953124999996  12.29296875 16.385742187499996  11.4609375 15.547851562500002  C 10.62890625 14.7099609375  9.884765625 13.7109375  9.228515625 12.55078125  C 9.205078125 12.515624999999998  9.1552734375 12.43359375  9.0791015625 12.304687499999998  C 9.002929687500002 12.175781249999998  8.947265625000002 12.076171875  8.912109375 12.005859375000002  C 8.876953125 11.935546874999998  8.8388671875 11.844726562499998  8.7978515625 11.7333984375  C 8.7568359375 11.622070312499998  8.736328125 11.525390625  8.736328125 11.443359375  C 8.736328125 11.291015624999998  8.8564453125 11.094726562499998  9.0966796875 10.854492187499998  C 9.3369140625 10.6142578125  9.6005859375 10.388671875  9.8876953125 10.177734375  C 10.1748046875 9.966796875  10.4384765625 9.735351562499998  10.6787109375 9.483398437499998  C 10.9189453125 9.2314453125  11.0390625 9.017578125  11.0390625 8.841796875000002  C 11.0390625 8.724609374999998  11.009765625000002 8.601562499999998  10.951171875 8.472656250000002  C 10.892578125 8.343749999999996  10.804687500000002 8.197265624999998  10.6875 8.033203124999998  C 10.5703125 7.869140624999997  10.494140625 7.757812499999998  10.458984375 7.69921875  C 10.423828125 7.628906250000001  10.3359375 7.4619140625  10.1953125 7.1982421875  C 10.0546875 6.9345703125  9.908203125000002 6.667968749999997  9.755859375 6.398437499999999  C 9.603515625 6.128906249999997  9.4482421875 5.850585937499997  9.2900390625 5.5634765625  C 9.1318359375 5.2763671874999964  8.9853515625 5.0390624999999964  8.8505859375 4.8515625  C 8.715820312500002 4.664062499999997  8.619140625 4.558593749999997  8.560546875 4.53515625  C 8.501953125 4.5117187499999964  8.408203125 4.499999999999999  8.279296875 4.499999999999999  C 7.716796875000001 4.499999999999999  7.125 4.62890625  6.50390625 4.886718750000001  C 5.964843750000001 5.132812499999999  5.49609375 5.686523437499999  5.09765625 6.547851562500001  C 4.699218750000001 7.4091796875  4.5 8.173828125  4.5 8.841796875000002  C 4.5 9.029296875  4.514648437500001 9.228515625  4.5439453125 9.439453125  C 4.5732421875 9.650390625  4.6025390625 9.829101562499998  4.6318359375 9.975585937500002  C 4.661132812500001 10.122070312499998  4.713867187500001 10.315429687499998  4.7900390625 10.555664062500002  C 4.8662109375 10.7958984375  4.924804687500001 10.96875  4.9658203125 11.07421875  C 5.006835937500001 11.1796875  5.080078125 11.373046875000002  5.185546875 11.654296875  C 5.291015625 11.935546874999998  5.35546875 12.111328125000002  5.37890625 12.181640625  C 6.08203125 14.103515625  7.3505859375 15.9814453125  9.1845703125 17.815429687500004  C 11.0185546875 19.6494140625  12.896484375 20.91796875  14.818359375 21.62109375  C 14.888671875000002 21.644531249999996  15.064453125000002 21.708984375  15.345703125 21.814453125  C 15.626953125000002 21.919921875  15.820312500000004 21.993164062500004  15.92578125 22.0341796875  C 16.031250000000004 22.0751953125  16.204101562500004 22.1337890625  16.4443359375 22.2099609375  C 16.6845703125 22.2861328125  16.877929687500004 22.3388671875  17.0244140625 22.3681640625  C 17.1708984375 22.3974609375  17.349609375000004 22.4267578125  17.560546875 22.4560546875  C 17.771484375000004 22.4853515625  17.970703125000004 22.5  18.158203125 22.5  C 18.826171875 22.5  19.5908203125 22.30078125  20.4521484375 21.90234375  C 21.3134765625 21.50390625  21.8671875 21.03515625  22.11328125 20.49609375  Z M 25.5146484375 1.4853515625000009  C 26.5048828125 2.475585937499998  27 3.6679687499999964  27 5.0625  L 27 21.9375  C 27 23.332031249999996  26.5048828125 24.524414062500004  25.5146484375 25.5146484375  C 24.524414062500004 26.5048828125  23.332031250000004 27  21.9375 27  L 5.0625 27  C 3.66796875 27  2.4755859375000004 26.5048828125  1.4853515625 25.5146484375  C 0.49511718749999994 24.524414062500004  0 23.332031249999996  0 21.9375  L 0 5.0625  C 0 3.6679687499999964  0.49511718749999994 2.475585937499998  1.4853515625 1.4853515625000009  C 2.4755859375000004 0.49511718749999833  3.66796875 0  5.0625 0  L 21.9375 0  C 23.332031250000004 0  24.524414062500004 0.49511718749999833  25.5146484375 1.4853515625000009  Z " fill-rule="nonzero" fill="#c69c6d" stroke="none" transform="matrix(1 0 0 1 307 1854 )" />
  </g>
</svg>